<?xml version="1.0" encoding="utf-8"?>
<!-- Generator: Adobe Illustrator 23.0.1, SVG Export Plug-In . SVG Version: 6.00 Build 0)  -->
<svg version="1.1" id="Layer_1" xmlns="http://www.w3.org/2000/svg" xmlns:xlink="http://www.w3.org/1999/xlink" x="0px" y="0px"
	 viewBox="0 0 130 22" style="enable-background:new 0 0 130 22;" xml:space="preserve">
<style type="text/css">
	.st0{clip-path:url(#SVGID_2_);}
	.st1{fill:#1E212C;}
	.st2{fill:#007bff;}
</style>
<g>
	<defs>
		<rect id="SVGID_1_" width="130" height="22"/>
	</defs>
	<clipPath id="SVGID_2_">
		<use xlink:href="#SVGID_1_"  style="overflow:visible;"/>
	</clipPath>
	<g class="st0">
		<path class="st1" d="M0,11.1C0,5,3.3,1.3,8.7,1.3c4.1,0,7.4,2.5,8,6.2c0.1,0.4-0.2,0.7-0.6,0.7h-2.6c-0.3,0-0.5-0.2-0.6-0.5
			c-0.5-1.9-2.1-3.1-4.2-3.1C5.8,4.6,4,7.1,4,11.1s1.8,6.5,4.8,6.5c2.1,0,3.6-1.1,4.2-2.9c0.1-0.3,0.3-0.5,0.6-0.5h2.6
			c0.4,0,0.7,0.4,0.6,0.7c-0.6,3.6-3.8,6-8,6C3.3,20.9,0,17.1,0,11.1z"/>
		<path class="st1" d="M24.3,20.4h-2.9c-0.3,0-0.5-0.2-0.5-0.5V2.6c0-0.4,0.4-0.8,0.8-0.8h7c4.1,0,6.6,2.3,6.6,5.9c0,2.1-1,4-2.7,5
			c-0.4,0.2-0.5,0.7-0.3,1l3.1,5.9c0.2,0.3-0.1,0.7-0.4,0.7h-3.3c-0.2,0-0.4-0.1-0.5-0.3l-2.9-6c-0.1-0.3-0.4-0.4-0.7-0.4h-2.3
			c-0.3,0-0.5,0.2-0.5,0.5V20C24.9,20.2,24.6,20.4,24.3,20.4z M24.9,10.2c0,0.3,0.2,0.5,0.5,0.5h3c2,0,3.1-1.1,3.1-2.9
			s-1.2-2.9-3.1-2.9h-2.9c-0.3,0-0.5,0.2-0.5,0.5v4.8H24.9z"/>
		<path class="st1" d="M51.5,20.4h-11c-0.4,0-0.7-0.3-0.7-0.7V2.5c0-0.4,0.3-0.7,0.7-0.7h11c0.4,0,0.7,0.3,0.7,0.7v1.9
			c0,0.4-0.3,0.7-0.7,0.7h-7.3c-0.3,0-0.5,0.2-0.5,0.5V9c0,0.3,0.2,0.5,0.5,0.5H51c0.4,0,0.7,0.3,0.7,0.7v1.7c0,0.4-0.3,0.7-0.7,0.7
			h-6.8c-0.3,0-0.5,0.2-0.5,0.5v3.8c0,0.3,0.2,0.5,0.5,0.5h7.3c0.4,0,0.7,0.3,0.7,0.7V20C52.2,20.1,51.9,20.4,51.5,20.4L51.5,20.4z"
			/>
		<path class="st1" d="M67,15.9h-5.7c-0.3,0-0.5,0.2-0.6,0.4L59.6,20c-0.1,0.3-0.3,0.4-0.6,0.4h-2.6c-0.4,0-0.7-0.4-0.6-0.8l6-17.4
			c0.1-0.2,0.3-0.4,0.6-0.4h3.7c0.3,0,0.5,0.2,0.6,0.4l6,17.4c0.1,0.4-0.2,0.8-0.6,0.8h-2.9c-0.3,0-0.5-0.2-0.6-0.4l-1.1-3.7
			C67.5,16.1,67.2,15.9,67,15.9z M62.1,13h4.1c0.2,0,0.3-0.2,0.3-0.4l-2.2-7h-0.2l-2.2,7C61.8,12.8,61.9,13,62.1,13z"/>
		<path class="st1" d="M79,19.7V5.5C79,5.2,78.8,5,78.5,5h-4.4c-0.4,0-0.8-0.3-0.8-0.8V2.5c0-0.4,0.3-0.8,0.8-0.8h13.6
			c0.4,0,0.8,0.3,0.8,0.8v1.7c0,0.4-0.3,0.8-0.8,0.8h-4.4c-0.3,0-0.5,0.2-0.5,0.5v14.3c0,0.4-0.3,0.7-0.7,0.7h-2.5
			C79.3,20.4,79,20.1,79,19.7L79,19.7z"/>
		<path class="st1" d="M103.8,20.4h-11c-0.4,0-0.7-0.3-0.7-0.7V2.5c0-0.4,0.3-0.7,0.7-0.7h11c0.4,0,0.7,0.3,0.7,0.7v1.9
			c0,0.4-0.3,0.7-0.7,0.7h-7.3c-0.3,0-0.5,0.2-0.5,0.5V9c0,0.3,0.2,0.5,0.5,0.5h6.8c0.4,0,0.7,0.3,0.7,0.7v1.7
			c0,0.4-0.3,0.7-0.7,0.7h-6.8c-0.3,0-0.5,0.2-0.5,0.5v3.8c0,0.3,0.2,0.5,0.5,0.5h7.3c0.4,0,0.7,0.3,0.7,0.7V20
			C104.5,20.1,104.2,20.4,103.8,20.4L103.8,20.4z"/>
		<path class="st2" d="M117.7,9.7l-6.2-8.1c-0.4-0.4-0.9-0.6-1.4-0.6s-1,0.2-1.4,0.6c-0.7,0.8-0.7,2,0,2.8l4.9,6.6l-4.9,6.6
			c-0.7,0.8-0.7,2,0,2.8c0.4,0.4,0.9,0.6,1.4,0.6s1-0.2,1.4-0.6l6.2-8.1C118.4,11.7,118.4,10.5,117.7,9.7z"/>
		<path class="st2" d="M120.3,9.7l6.2-8.1c0.4-0.4,0.9-0.6,1.4-0.6c0.5,0,1,0.2,1.4,0.6c0.7,0.8,0.7,2,0,2.8l-4.9,6.6l4.9,6.6
			c0.7,0.8,0.7,2,0,2.8c-0.4,0.4-0.9,0.6-1.4,0.6s-1-0.2-1.4-0.6l-6.2-8.1C119.6,11.7,119.6,10.5,120.3,9.7z"/>
	</g>
</g>
</svg>
